<svg id="Layer_1" data-name="Layer 1" xmlns="http://www.w3.org/2000/svg" viewBox="0 0 535.47 535.47"><defs><style>.cls-1{fill:#f4abc8;}</style></defs><path class="cls-1" d="M28.35,116.12c1.71,0,3.43-.07,5.14-.07H507.12V419.14c-1.3.09-2.65.27-4,.27H30.22c-.63,0-1.25,0-1.87-.06ZM491.12,403.34V164.19H44.65V403.34ZM44.49,147.59H491.25V132.28H44.49Z"/><path class="cls-1" d="M268.13,195.79c45.06,0,90.12-.11,135.18,0,34.14.11,63.4,23.56,70.41,56,9.81,45.44-23.65,87.46-70.2,87.77-38,.26-76.08.06-114.12.06q-78.12,0-156.23,0c-32.15-.06-59.63-19.81-69.3-49.54A71.82,71.82,0,0,1,132,195.85C177.39,195.57,222.76,195.79,268.13,195.79ZM204.38,212V323.47h127V212Zm143.28-.24c0,4.67.15,8.69-.05,12.7-.15,2.94.69,4.27,3.76,5.18a38.19,38.19,0,0,1,23.12,18.51C387,270.26,376,297.89,351.71,305.9c-1.5.5-3.74,1.84-3.84,3-.43,4.75-.19,9.55-.19,14.24a8.35,8.35,0,0,0,1.83.56c13.41,0,26.81.12,40.22,0a6.25,6.25,0,0,0,4-2.39c23.64-29.91,23.6-77.43-.09-107.12-.86-1.07-2.42-2.23-3.66-2.24C376.17,211.7,362.31,211.76,347.66,211.76Zm-159.54,112c0-4.33-.27-8.06.07-11.74s-.95-5.3-4.63-6.47a39.07,39.07,0,0,1-27.26-35c-1.06-16.56,7.39-32.69,22.7-38.4,8.54-3.18,10.28-7.63,9.13-15.24a5.05,5.05,0,0,1,0-1.4c.37-2.85-.84-3.77-3.7-3.74-12.63.13-25.26,0-37.88.16a6.75,6.75,0,0,0-4.53,2.37c-23.68,29.87-23.64,77.42,0,107.11.86,1.08,2.41,2.25,3.65,2.27C159.58,323.77,173.45,323.71,188.12,323.71ZM412.5,212.83c20.12,36.75,20.08,73.11.16,109.55,25.16-2.43,46.08-26.44,46.88-53.38C460.36,241.68,439.92,216.93,412.5,212.83Zm-289.36.22c-26.87,2.93-48.32,29.48-46.85,57.1,1.41,26.66,23.85,51.75,46.72,52C103.21,285.94,103.19,249.69,123.14,213.05ZM188,245.68c-10.47,3.08-16.79,13.38-15.69,24.87.87,9.15,8.33,18.14,15.69,18.8Zm159.77,44.13c10.26-3.19,16.51-13,15.72-24.15-.67-9.46-7.75-18.39-15.72-19.69Z"/><path class="cls-1" d="M475.22,387.29H372V371.71h87.46V340.07h15.81Z"/><path class="cls-1" d="M355.57,371.82v15.39H340.1V371.82Z"/><path class="cls-1" d="M214.16,277.93c0-4.92,2.94-8.4,7.74-10.44l-.06-.18c-4.32-2-6.18-5.4-6.18-8.76,0-6.18,5.22-10.38,12.06-10.38,7.56,0,11.34,4.74,11.34,9.6,0,3.3-1.62,6.84-6.42,9.12v.18c4.86,1.92,7.86,5.34,7.86,10.08,0,6.78-5.82,11.34-13.26,11.34C219.08,288.49,214.16,283.63,214.16,277.93Zm21-.24c0-4.74-3.3-7-8.58-8.52-4.56,1.32-7,4.32-7,8-.18,4,2.82,7.44,7.8,7.44C232.1,284.65,235.16,281.71,235.16,277.69Zm-14.52-19.5c0,3.9,2.94,6,7.44,7.2,3.36-1.14,5.94-3.54,5.94-7.08,0-3.12-1.86-6.36-6.6-6.36C223,252,220.64,254.83,220.64,258.19Z"/><path class="cls-1" d="M281.36,270.07c-.3-5.64-.66-12.42-.6-17.46h-.18c-1.38,4.74-3.06,9.78-5.1,15.36l-7.14,19.62h-4l-6.54-19.26c-1.92-5.7-3.54-10.92-4.68-15.72H253c-.12,5-.42,11.82-.78,17.88l-1.08,17.34h-5L249,247.39h6.66l6.9,19.56c1.68,5,3.06,9.42,4.08,13.62h.18c1-4.08,2.46-8.52,4.26-13.62l7.2-19.56H285l2.52,40.44h-5.1Z"/><path class="cls-1" d="M295.52,247.93a50.58,50.58,0,0,1,9.54-.84c5.22,0,8.58.9,11.1,2.94a8.48,8.48,0,0,1,3.36,7.14c0,3.9-2.58,7.32-6.84,8.88v.12c3.84,1,8.34,4.14,8.34,10.14a10.9,10.9,0,0,1-3.42,8.1c-2.82,2.58-7.38,3.78-14,3.78a61,61,0,0,1-8.1-.48Zm5.22,16.56h4.74c5.52,0,8.76-2.88,8.76-6.78,0-4.74-3.6-6.6-8.88-6.6a22.39,22.39,0,0,0-4.62.36Zm0,19.38a27.89,27.89,0,0,0,4.38.24c5.4,0,10.38-2,10.38-7.86,0-5.52-4.74-7.8-10.44-7.8h-4.32Z"/></svg>